<!-- Placeholder Robot Logo SVG -->
<svg width="200" height="200" viewBox="0 0 200 200" xmlns="http://www.w3.org/2000/svg">
  <!-- Robot Head -->
  <rect x="50" y="40" width="100" height="80" rx="15" fill="#5fffe0" stroke="#6366f1" stroke-width="3"/>
  
  <!-- Robot Eyes -->
  <circle cx="70" cy="70" r="8" fill="#6366f1"/>
  <circle cx="130" cy="70" r="8" fill="#6366f1"/>
  <circle cx="70" cy="70" r="3" fill="#ffffff"/>
  <circle cx="130" cy="70" r="3" fill="#ffffff"/>
  
  <!-- Robot Mouth -->
  <rect x="85" y="90" width="30" height="8" rx="4" fill="#6366f1"/>
  
  <!-- Robot Antenna -->
  <line x1="100" y1="40" x2="100" y2="20" stroke="#6366f1" stroke-width="3"/>
  <circle cx="100" cy="15" r="5" fill="#5fffe0" stroke="#6366f1" stroke-width="2"/>
  
  <!-- Robot Body -->
  <rect x="60" y="120" width="80" height="60" rx="10" fill="#5fffe0" stroke="#6366f1" stroke-width="3"/>
  
  <!-- Robot Arms -->
  <rect x="20" y="130" width="40" height="15" rx="7" fill="#5fffe0" stroke="#6366f1" stroke-width="2"/>
  <rect x="140" y="130" width="40" height="15" rx="7" fill="#5fffe0" stroke="#6366f1" stroke-width="2"/>
  
  <!-- Robot Legs -->
  <rect x="75" y="180" width="15" height="20" fill="#6366f1"/>
  <rect x="110" y="180" width="15" height="20" fill="#6366f1"/>
  
  <!-- Tech Details -->
  <rect x="80" y="140" width="40" height="3" fill="#6366f1"/>
  <rect x="80" y="150" width="25" height="3" fill="#6366f1"/>
  <rect x="80" y="160" width="35" height="3" fill="#6366f1"/>
</svg>
